<?xml version="1.0" standalone="no"?>
<!DOCTYPE svg PUBLIC "-//W3C//DTD SVG 20010904//EN"
 "http://www.w3.org/TR/2001/REC-SVG-20010904/DTD/svg10.dtd">
<svg version="1.0" xmlns="http://www.w3.org/2000/svg"
 width="1563.000000pt" height="1563.000000pt" viewBox="0 0 1563.000000 1563.000000"
 preserveAspectRatio="xMidYMid meet">
<metadata>
Created by potrace 1.14, written by Peter Selinger 2001-2017
</metadata>
<g transform="translate(0.000000,1563.000000) scale(0.100000,-0.100000)"
fill="#000000" stroke="none">
<path d="M494 11212 c-14 -9 -25 -52 -12 -52 5 0 6 -5 2 -11 -10 -17 -11 -89
-1 -89 4 0 5 -5 1 -12 -10 -16 -11 -118 -1 -118 4 0 5 -5 1 -12 -10 -15 -12
-78 -3 -78 3 0 6 -7 6 -15 0 -8 -3 -15 -6 -15 -3 0 -6 -16 -6 -35 0 -19 4 -35
8 -35 5 0 5 -5 1 -12 -11 -17 -11 -138 0 -138 5 0 5 -5 0 -12 -11 -16 -11 -39
-1 -55 5 -7 5 -13 0 -13 -4 0 -8 -11 -8 -25 0 -14 4 -25 8 -25 5 0 5 -6 1 -12
-5 -7 -9 -21 -9 -30 -2 -20 -1 -20 155 -20 58 -1 98 -5 102 -12 6 -8 8 -8 8 0
0 15 310 15 310 0 0 -8 3 -7 8 0 10 15 304 15 314 0 6 -8 8 -8 8 0 0 15 310
15 310 0 0 -8 3 -7 8 0 10 15 304 15 314 0 6 -8 8 -8 8 0 0 15 310 15 310 0 0
-8 3 -7 8 0 10 15 304 15 314 0 6 -8 8 -8 8 0 0 15 310 15 310 0 0 -8 3 -7 8
0 10 15 304 15 314 0 6 -8 8 -8 8 0 0 15 310 15 310 0 0 -8 3 -7 8 0 10 15
304 15 314 0 6 -8 8 -8 8 0 0 15 310 15 310 0 0 -8 3 -8 8 0 10 15 312 15 312
0 0 -8 3 -8 8 0 10 15 304 15 314 0 5 -8 8 -8 8 0 0 7 190 10 631 10 l630 -1
92 120 c50 66 93 122 96 125 3 3 11 12 16 21 13 21 166 222 174 229 4 3 25 30
46 60 22 30 48 64 57 75 10 11 17 24 17 28 0 5 8 16 18 25 17 16 103 128 103
134 0 6 -108 1 -118 -6 -7 -4 -12 -3 -12 3 0 11 -19 9 -39 -3 -11 -7 -12 -6
-6 5 7 11 6 12 -7 2 -8 -7 -18 -10 -21 -6 -11 11 -57 10 -57 -2 0 -6 -3 -7 -8
0 -4 6 -55 10 -117 10 -62 0 -113 -4 -117 -10 -5 -7 -8 -7 -8 0 0 11 -73 11
-90 0 -6 -3 -10 -3 -10 2 0 12 -124 10 -132 -2 -5 -7 -8 -7 -8 0 0 11 -73 11
-90 0 -6 -3 -10 -3 -10 2 0 12 -124 10 -132 -2 -5 -7 -8 -6 -8 0 0 9 -42 12
-60 5 -3 -1 -9 -1 -15 0 -32 7 -56 6 -61 -2 -3 -4 -10 -6 -15 -2 -17 10 -59
12 -65 3 -3 -5 -13 -6 -22 -1 -21 9 -43 9 -59 -1 -7 -5 -13 -5 -13 0 0 7 -54
9 -70 3 -3 -1 -9 -1 -15 0 -32 7 -56 6 -61 -2 -3 -4 -10 -6 -15 -2 -17 10 -59
12 -65 3 -3 -5 -13 -6 -22 -1 -21 9 -43 9 -59 -1 -7 -5 -13 -5 -13 0 0 12 -74
10 -82 -2 -5 -7 -8 -7 -8 0 0 11 -73 11 -90 0 -6 -3 -10 -3 -10 2 0 12 -124
10 -132 -2 -5 -7 -8 -7 -8 0 0 11 -73 11 -90 0 -6 -3 -10 -3 -10 2 0 12 -124
10 -132 -2 -5 -7 -8 -7 -8 0 0 11 -73 11 -90 0 -6 -3 -10 -3 -10 2 0 12 -124
10 -132 -2 -5 -7 -8 -7 -8 0 0 11 -73 11 -90 0 -6 -3 -10 -3 -10 2 0 12 -124
10 -132 -2 -5 -7 -8 -7 -8 0 0 11 -73 11 -90 0 -6 -3 -10 -3 -10 2 0 4 -29 8
-65 8 -37 0 -65 -4 -65 -10 0 -7 -3 -7 -8 0 -4 6 -20 10 -37 10 -16 0 -33 -4
-37 -10 -5 -7 -8 -7 -8 0 0 11 -73 11 -90 0 -6 -3 -10 -3 -10 2 0 12 -124 10
-132 -2 -5 -7 -8 -7 -8 0 0 11 -73 11 -90 0 -6 -3 -10 -3 -10 2 0 12 -124 10
-132 -2 -5 -7 -8 -7 -8 0 0 11 -73 11 -90 0 -6 -3 -10 -3 -10 2 0 12 -124 10
-132 -2 -5 -7 -8 -7 -8 0 0 11 -73 11 -90 0 -6 -3 -10 -3 -10 2 0 12 -124 10
-132 -2 -5 -7 -8 -7 -8 0 0 11 -73 11 -90 0 -6 -3 -10 -3 -10 2 0 4 -29 8 -65
8 -37 0 -65 -4 -65 -10 0 -7 -3 -7 -8 0 -4 6 -20 10 -37 10 -16 0 -33 -4 -37
-10 -5 -7 -8 -7 -8 0 0 11 -73 11 -90 0 -6 -3 -10 -3 -10 2 0 12 -124 10 -132
-2 -5 -7 -8 -7 -8 0 0 11 -73 11 -90 0 -6 -3 -10 -3 -10 2 0 12 -124 10 -132
-2 -5 -7 -8 -7 -8 0 0 11 -73 11 -90 0 -6 -3 -10 -3 -10 2 0 12 -124 10 -132
-2 -5 -7 -8 -7 -8 0 0 11 -73 11 -90 0 -6 -3 -10 -3 -10 2 0 12 -124 10 -132
-2 -5 -7 -8 -7 -8 0 0 11 -73 11 -90 0 -6 -3 -10 -3 -10 2 0 4 -29 8 -65 8
-37 0 -65 -4 -65 -10 0 -7 -3 -7 -8 0 -4 6 -20 10 -37 10 -16 0 -33 -4 -37
-10 -5 -7 -8 -7 -8 0 0 11 -73 11 -90 0 -6 -3 -10 -3 -10 2 0 12 -124 10 -132
-2 -5 -7 -8 -7 -8 0 0 11 -73 11 -90 0 -6 -3 -10 -3 -10 2 0 12 -124 10 -132
-2 -5 -7 -8 -7 -8 0 0 11 -73 11 -90 0 -6 -3 -10 -3 -10 2 0 4 -29 8 -65 8
-37 0 -65 -4 -65 -10 0 -5 -4 -5 -8 2 -4 7 -12 9 -18 5z"/>
<path d="M6958 11208 c-16 -5 -28 -13 -28 -17 0 -5 -13 -24 -30 -42 -16 -19
-30 -37 -30 -41 0 -4 -10 -16 -22 -28 -12 -11 -19 -20 -15 -20 4 0 -1 -8 -10
-18 -23 -24 -32 -36 -123 -157 -41 -55 -77 -102 -80 -105 -7 -6 -60 -77 -80
-106 -18 -26 -133 -177 -140 -184 -7 -7 -55 -72 -62 -85 -4 -7 102 -10 309 -9
l315 0 54 70 c30 38 62 80 71 94 9 14 21 30 27 35 6 6 16 18 21 27 11 19 126
170 135 178 3 3 32 41 64 85 33 44 62 82 65 85 4 3 33 41 65 85 33 44 63 82
68 83 4 2 8 8 8 13 0 6 9 20 20 32 19 20 20 22 3 28 -10 4 -22 4 -28 1 -15 -9
-45 -10 -45 -1 0 6 -22 5 -40 -1 -5 -2 -28 -2 -108 3 -24 1 -45 -1 -47 -4 -2
-3 -19 -4 -37 -2 -62 7 -120 8 -123 2 -2 -3 -19 -4 -37 -2 -81 8 -98 8 -98 -2
0 -6 -3 -6 -8 1 -5 7 -16 8 -34 2z"/>
<path d="M7744 11195 c-12 -13 -24 -31 -27 -39 -4 -9 -11 -16 -17 -16 -5 0
-10 -7 -10 -15 0 -9 -7 -18 -15 -21 -8 -4 -15 -13 -15 -20 0 -8 -7 -17 -15
-20 -8 -4 -15 -10 -15 -16 0 -5 -6 -15 -12 -22 -7 -7 -22 -25 -33 -40 -11 -15
-27 -36 -35 -46 -8 -10 -22 -28 -30 -40 -14 -21 -29 -40 -71 -87 -10 -13 -16
-23 -11 -23 4 0 2 -4 -4 -8 -6 -4 -46 -54 -90 -112 -91 -121 -103 -136 -126
-162 -10 -10 -15 -18 -12 -18 3 0 -11 -20 -31 -44 -30 -37 -33 -44 -18 -47 10
-3 145 -4 301 -4 281 1 282 1 298 23 9 13 27 34 40 47 14 14 22 25 19 25 -3 0
13 24 35 53 23 28 51 65 63 81 12 15 28 34 35 41 6 8 12 19 12 25 0 6 5 8 10
5 6 -3 10 -1 10 4 0 19 4 25 30 53 35 36 50 56 50 64 0 3 14 23 30 43 42 50
46 55 47 64 1 5 11 17 22 26 12 10 21 23 21 30 0 6 4 11 9 11 5 0 19 16 31 35
12 20 27 41 34 48 6 6 27 32 46 57 19 25 39 48 45 52 6 5 6 8 0 8 -5 0 -3 5 5
10 16 10 18 10 -35 14 -11 0 -32 -2 -47 -6 -15 -3 -30 -2 -34 3 -3 6 -12 5
-22 -3 -13 -11 -14 -11 -7 2 7 12 6 13 -7 3 -8 -7 -18 -10 -22 -6 -11 11 -50
9 -58 -2 -5 -7 -8 -7 -8 0 0 12 -121 12 -140 0 -9 -6 -11 -4 -5 6 7 11 6 12
-7 2 -8 -7 -18 -10 -22 -6 -11 11 -50 9 -58 -2 -5 -7 -8 -7 -8 0 0 11 -72 11
-89 0 -5 -3 -11 -1 -13 4 -1 6 -13 -1 -24 -14z"/>
<path d="M8550 11210 c-8 -5 -17 -7 -21 -4 -4 2 -10 -5 -14 -16 -3 -11 -12
-26 -19 -32 -6 -7 -32 -40 -56 -73 -25 -33 -47 -62 -50 -65 -4 -3 -19 -23 -35
-45 -17 -22 -32 -42 -35 -45 -3 -3 -17 -21 -30 -40 -13 -19 -27 -37 -30 -40
-3 -3 -32 -41 -65 -85 -33 -44 -64 -85 -70 -91 -5 -6 -17 -22 -25 -34 -8 -12
-20 -28 -25 -34 -16 -17 -155 -204 -155 -208 0 -2 536 -2 565 1 6 1 31 29 55
63 25 34 50 66 55 72 6 6 22 27 35 46 13 19 27 37 30 40 3 3 25 32 50 65 25
33 50 65 55 71 6 7 19 24 30 39 17 24 69 93 120 160 18 23 42 54 102 134 23
31 46 61 51 66 4 6 9 14 9 18 1 5 10 15 20 24 10 8 12 12 6 8 -7 -3 -13 -3
-13 2 0 4 -27 8 -59 8 -33 0 -57 -4 -53 -9 3 -5 0 -6 -6 -2 -16 10 -105 11
-121 2 -10 -7 -12 -5 -6 5 7 11 6 12 -7 2 -8 -7 -18 -10 -22 -6 -11 11 -50 9
-58 -2 -5 -7 -8 -7 -8 0 0 12 -121 12 -140 0 -9 -6 -11 -4 -5 6 7 11 6 12 -6
2 -10 -8 -19 -9 -25 -3 -5 5 -15 6 -24 0z"/>
<path d="M9324 11183 c-16 -20 -39 -46 -51 -59 -12 -13 -20 -24 -17 -24 3 0
-14 -24 -38 -53 -24 -29 -52 -66 -63 -81 -11 -15 -27 -36 -35 -46 -8 -10 -22
-28 -30 -40 -8 -12 -22 -31 -31 -41 -9 -11 -27 -35 -40 -54 -13 -19 -27 -35
-31 -35 -5 0 -8 -5 -8 -10 0 -11 -10 -25 -47 -65 -13 -13 -23 -27 -23 -30 0
-4 -6 -13 -12 -20 -7 -8 -22 -26 -33 -41 -11 -14 -26 -32 -32 -39 -7 -8 -13
-18 -13 -24 0 -5 -10 -17 -22 -25 -12 -9 -18 -16 -13 -16 6 0 3 -6 -5 -13 -9
-7 -25 -25 -37 -42 l-21 -30 272 0 271 0 25 30 c14 17 29 33 35 37 6 5 7 8 0
8 -5 0 -5 4 1 8 10 6 32 34 108 137 11 14 27 35 35 45 9 10 23 28 31 40 8 12
20 28 25 34 6 6 24 29 40 51 17 22 62 81 100 131 39 49 79 103 90 118 11 15
27 36 35 46 8 10 22 28 30 40 8 12 25 34 37 48 24 28 29 41 16 43 -44 4 -132
1 -143 -6 -9 -6 -11 -4 -5 6 7 11 6 12 -7 2 -8 -7 -18 -10 -22 -6 -11 11 -50
9 -58 -2 -5 -7 -8 -7 -8 0 0 8 -80 12 -100 5 -8 -3 -52 -1 -83 3 -15 2 -30 0
-33 -5 -3 -4 -10 -6 -15 -3 -27 17 -48 11 -75 -22z"/>
<path d="M10114 11208 c-3 -4 -3 -8 0 -8 3 0 -2 -8 -11 -18 -10 -10 -29 -33
-43 -51 -14 -18 -32 -41 -41 -51 -8 -9 -18 -24 -22 -33 -3 -9 -11 -17 -17 -17
-5 0 -10 -5 -10 -11 0 -11 -32 -54 -75 -101 -14 -15 -25 -29 -25 -33 0 -3 -44
-63 -97 -133 -54 -70 -111 -145 -128 -167 -16 -22 -40 -51 -52 -65 -13 -14
-23 -28 -23 -31 0 -3 -13 -22 -30 -40 -30 -34 -36 -48 -22 -50 29 -4 502 -3
502 1 0 3 16 23 35 44 19 22 35 42 35 45 0 3 12 20 26 36 14 17 33 42 42 58 9
15 22 27 30 27 7 0 11 4 8 8 -2 4 17 35 42 68 26 33 56 73 67 89 11 15 30 38
43 51 12 13 22 30 22 39 0 9 4 14 9 11 5 -3 11 0 14 8 5 13 134 185 147 196 3
3 17 21 30 40 13 19 32 43 42 53 15 15 17 22 7 33 -10 12 -14 12 -20 2 -5 -7
-9 -8 -9 -3 0 12 -121 12 -140 0 -9 -6 -11 -4 -5 6 7 11 6 12 -7 2 -8 -7 -18
-10 -22 -6 -11 11 -50 9 -58 -2 -5 -7 -8 -7 -8 0 0 12 -121 12 -140 0 -9 -6
-11 -4 -5 6 7 11 6 12 -7 2 -8 -7 -18 -10 -21 -6 -10 9 -58 10 -63 1z"/>
<path d="M10930 11206 c-11 -5 -20 -13 -20 -17 0 -4 -6 -14 -13 -21 -7 -7 -62
-78 -122 -158 -60 -80 -117 -154 -127 -164 -10 -11 -18 -26 -18 -33 0 -7 -4
-13 -10 -13 -5 0 -22 -19 -37 -42 -16 -23 -35 -50 -43 -60 -20 -23 -29 -33
-80 -103 -25 -33 -47 -62 -50 -65 -3 -3 -27 -33 -53 -67 -39 -51 -45 -63 -30
-64 95 -5 452 -3 464 3 9 4 47 48 85 98 37 49 72 90 77 90 4 0 6 4 3 9 -3 5 4
19 17 32 12 13 36 42 52 64 16 22 33 45 37 50 5 6 41 53 80 105 40 52 77 98
83 102 5 4 6 8 1 8 -6 0 -3 6 6 13 20 16 172 219 174 232 1 8 -95 12 -116 5
-5 -2 -28 -2 -108 3 -24 1 -45 -1 -47 -4 -4 -5 -34 -3 -90 4 -11 2 -26 -1 -32
-6 -7 -5 -13 -6 -13 -1 0 12 -44 11 -70 0z"/>
<path d="M11711 11209 c-11 -5 -21 -12 -21 -17 0 -4 -8 -17 -18 -28 -9 -10
-40 -49 -67 -86 -27 -38 -53 -68 -59 -68 -5 0 -7 -3 -3 -6 3 -3 -2 -15 -11
-26 -35 -41 -48 -57 -67 -84 -11 -15 -31 -42 -45 -59 -14 -18 -32 -43 -40 -55
-8 -12 -28 -36 -43 -54 -15 -17 -35 -43 -44 -58 -10 -16 -21 -28 -25 -28 -4 0
-8 -7 -8 -15 0 -8 -4 -15 -10 -15 -5 0 -10 -7 -10 -16 0 -8 -4 -12 -10 -9 -5
3 -10 1 -10 -6 0 -6 -18 -33 -40 -59 -22 -26 -40 -51 -40 -54 0 -4 -11 -19
-25 -34 -13 -14 -20 -29 -16 -32 18 -10 455 -4 458 7 2 6 12 21 21 32 25 31
45 58 104 136 29 39 55 72 58 75 3 3 25 32 50 65 24 33 48 65 52 70 5 6 32 42
61 80 28 39 57 75 62 81 6 6 17 22 25 34 8 13 23 30 33 39 9 8 17 21 17 27 0
7 4 14 8 16 12 4 113 140 108 145 -7 8 -82 9 -103 1 -13 -4 -23 -4 -23 1 0 11
-63 8 -72 -4 -5 -7 -8 -7 -8 0 0 12 -121 12 -140 0 -9 -6 -11 -4 -5 6 7 11 6
12 -7 2 -8 -7 -18 -10 -22 -6 -10 10 -40 11 -65 2z"/>
<path d="M12494 11182 c-16 -20 -33 -42 -39 -49 -14 -17 -23 -28 -75 -98 -25
-33 -49 -63 -55 -67 -5 -4 -6 -8 -2 -8 4 0 -1 -10 -13 -22 -50 -56 -70 -81
-70 -89 0 -4 -7 -15 -16 -24 -28 -27 -154 -195 -154 -204 0 -5 -7 -11 -15 -15
-8 -3 -15 -10 -15 -15 0 -6 -10 -21 -22 -34 -13 -13 -30 -34 -38 -46 -8 -13
-27 -39 -42 -59 -16 -19 -28 -39 -28 -43 0 -10 0 -10 229 -12 144 -2 177 1
191 13 24 20 160 202 160 213 0 4 5 5 10 2 6 -3 10 -1 10 5 0 9 18 34 88 125
4 6 21 28 37 50 17 22 32 42 35 45 3 3 32 41 65 85 33 44 65 83 70 87 6 4 6 8
2 8 -4 0 3 11 17 24 15 13 26 29 26 35 0 6 7 14 15 17 8 4 15 12 15 20 0 8 5
14 12 14 6 0 9 3 5 6 -3 3 5 16 18 28 31 28 20 45 -25 39 -19 -3 -39 -4 -45
-4 -71 5 -144 3 -155 -4 -9 -6 -11 -4 -5 6 7 11 6 12 -7 2 -8 -7 -18 -10 -22
-6 -10 11 -96 9 -96 -2 0 -7 -3 -7 -8 0 -14 20 -31 14 -58 -23z"/>
<path d="M13277 11184 c-18 -20 -42 -48 -54 -61 -13 -13 -23 -27 -24 -31 -2
-7 -47 -69 -64 -88 -5 -6 -21 -27 -35 -47 -14 -20 -28 -37 -32 -37 -5 0 -8 -6
-8 -14 0 -8 -4 -16 -8 -18 -5 -1 -35 -39 -68 -83 -32 -44 -66 -85 -74 -92 -8
-7 -10 -13 -5 -13 6 0 5 -4 -2 -8 -6 -4 -45 -52 -86 -107 -42 -55 -83 -108
-93 -117 -9 -10 -14 -26 -11 -37 4 -15 1 -18 -12 -14 -12 5 -13 3 -4 -7 8 -9
60 -13 190 -14 l178 -2 38 41 c20 22 37 43 37 47 0 4 6 13 13 20 6 7 25 31 42
53 16 22 34 45 40 51 5 6 17 22 25 34 8 12 25 34 37 49 12 14 52 67 88 116 37
50 73 95 79 100 7 6 13 13 12 17 -1 3 11 20 27 37 15 17 27 33 27 36 0 3 8 13
18 24 9 10 37 46 62 80 24 33 49 61 54 61 5 0 7 3 3 6 -3 4 1 13 10 22 14 14
14 16 -3 23 -11 3 -29 3 -41 -2 -13 -5 -23 -5 -23 0 0 11 -19 9 -39 -3 -11 -7
-12 -6 -6 5 7 11 6 12 -7 2 -8 -7 -18 -10 -22 -6 -11 11 -50 9 -58 -2 -5 -7
-8 -6 -8 0 0 12 -40 13 -58 1 -7 -4 -12 -4 -12 1 0 4 -11 8 -25 8 -14 0 -25
-4 -25 -8 0 -4 -9 -3 -21 3 -18 10 -25 7 -52 -26z"/>
<path d="M14109 11209 c-13 -4 -21 -7 -16 -8 4 -1 -1 -9 -10 -19 -36 -37 -63
-72 -63 -81 0 -5 -4 -11 -8 -13 -5 -1 -35 -39 -68 -83 -32 -43 -66 -87 -74
-96 -8 -9 -37 -48 -65 -85 -27 -38 -53 -71 -58 -72 -4 -2 -5 -8 -1 -13 3 -5
-2 -9 -10 -9 -9 0 -16 -7 -16 -15 0 -8 -4 -15 -10 -15 -5 0 -10 -5 -10 -11 0
-7 -11 -22 -24 -34 -14 -13 -22 -26 -19 -29 4 -3 1 -6 -5 -6 -7 0 -12 -7 -12
-15 0 -8 -3 -15 -7 -15 -5 0 -24 -23 -43 -50 -19 -27 -38 -50 -42 -50 -5 0 -8
-5 -8 -11 0 -6 -7 -17 -15 -25 -8 -9 -15 -24 -15 -35 0 -13 -4 -18 -12 -13 -7
4 -10 3 -5 -1 11 -12 347 -12 362 0 7 6 38 44 70 85 31 41 96 126 143 188 48
62 92 121 97 130 6 9 16 23 24 31 7 8 47 60 89 115 41 56 79 103 83 104 5 2 9
10 9 18 0 8 4 14 8 14 4 0 15 12 24 28 9 15 28 40 42 57 14 16 23 31 21 34 -8
8 -161 4 -175 -4 -9 -6 -11 -4 -5 6 7 11 6 12 -7 2 -8 -7 -18 -10 -21 -6 -11
11 -57 10 -57 -2 0 -6 -3 -7 -8 0 -8 12 -48 13 -83 4z"/>
<path d="M14887 11207 c-15 -7 -33 -22 -40 -34 -14 -25 -150 -205 -172 -227
-8 -8 -15 -19 -15 -25 0 -6 -4 -11 -10 -11 -5 0 -10 -4 -10 -9 0 -9 -24 -41
-62 -82 -10 -10 -15 -19 -10 -19 4 0 2 -4 -4 -8 -5 -4 -39 -45 -74 -92 -35
-47 -69 -90 -75 -96 -5 -6 -17 -22 -25 -34 -8 -12 -32 -43 -52 -69 -36 -47
-58 -100 -42 -102 60 -6 290 -2 304 6 16 9 63 65 95 113 6 9 18 25 27 36 9 12
44 57 77 101 33 44 67 87 75 96 9 9 16 19 16 23 0 4 6 13 13 20 6 7 22 26 34
42 72 95 246 323 263 344 11 14 20 28 20 31 0 8 -33 5 -48 -5 -6 -4 -12 -3
-12 1 0 10 -41 10 -58 -1 -7 -4 -12 -3 -12 2 0 5 -15 8 -32 5 -47 -6 -60 -6
-85 0 -13 3 -23 1 -23 -4 0 -6 -6 -6 -18 0 -11 6 -27 5 -45 -2z"/>
<path d="M484 10084 c3 -8 2 -14 -2 -14 -5 0 -7 -19 -5 -42 2 -24 3 -49 3 -55
0 -7 0 -21 0 -30 0 -10 0 -31 -1 -48 -1 -16 -1 -42 0 -57 1 -27 1 -39 1 -73 0
-8 0 -21 1 -27 0 -7 -2 -25 -4 -40 -2 -16 0 -28 5 -28 5 0 6 -5 2 -12 -10 -16
-12 -78 -2 -78 4 0 4 -10 0 -22 -5 -13 -7 -34 -5 -48 2 -14 3 -31 3 -37 0 -22
0 -42 1 -55 0 -7 -2 -25 -4 -40 -2 -16 0 -28 5 -28 5 0 6 -5 2 -12 -12 -18
-11 -57 1 -62 6 -2 1127 -4 2492 -4 1364 0 2487 -3 2493 -7 8 -5 11 -4 7 2 -4
6 7 25 23 42 17 17 27 31 23 31 -5 0 -3 4 3 8 6 4 39 45 74 92 35 47 72 93 82
103 10 10 18 21 18 25 0 4 10 19 23 34 12 14 29 36 37 49 8 13 25 33 37 46 12
13 19 23 16 23 -4 0 3 9 15 20 12 12 22 24 22 28 0 4 14 22 30 41 17 18 30 36
30 40 0 3 13 20 28 38 15 17 36 44 47 59 11 15 39 52 63 82 23 30 42 58 42 62
0 5 -1263 8 -2806 8 -2422 0 -2805 -1 -2800 -14z"/>
<path d="M6203 10085 c-7 -8 -13 -19 -13 -25 0 -5 -4 -10 -8 -10 -4 0 -16 -14
-26 -30 -9 -17 -28 -41 -42 -55 -13 -13 -24 -27 -24 -30 0 -8 -71 -97 -85
-107 -5 -4 -7 -8 -3 -8 5 0 -1 -10 -11 -22 -11 -13 -29 -34 -40 -47 -12 -13
-21 -27 -21 -30 0 -3 -14 -20 -30 -38 -17 -18 -30 -35 -30 -38 0 -3 -26 -39
-57 -79 -32 -41 -67 -86 -77 -101 -11 -14 -30 -38 -43 -53 -13 -15 -23 -33
-23 -39 0 -7 -4 -13 -10 -13 -5 0 -23 -20 -40 -45 l-31 -45 51 3 c28 2 53 0
56 -4 2 -4 17 -4 32 0 15 4 43 6 62 4 42 -5 44 -5 98 0 24 2 45 0 48 -4 2 -4
17 -4 32 0 23 6 87 7 102 1 3 -1 10 -1 15 0 6 1 41 3 79 3 49 2 71 6 74 16 2
7 13 22 23 32 11 11 16 19 12 19 -5 0 -3 4 3 8 5 4 46 54 89 112 44 58 85 111
92 118 7 7 13 17 13 20 0 4 10 18 23 32 12 14 33 42 47 62 14 21 28 38 31 38
4 0 21 23 39 50 18 28 36 50 42 50 5 0 7 4 3 9 -3 6 1 13 8 18 7 4 29 31 48
58 18 28 42 57 52 66 9 9 17 20 17 23 0 4 6 13 13 21 27 29 47 56 47 64 0 5
-137 9 -312 9 -256 1 -315 -2 -325 -13z"/>
<path d="M7010 10086 c0 -7 -11 -25 -25 -40 -14 -15 -25 -31 -25 -37 0 -5 -4
-9 -10 -9 -5 0 -10 -4 -10 -10 0 -5 -10 -20 -21 -32 -12 -13 -90 -113 -173
-224 -184 -244 -198 -262 -214 -280 -7 -8 -11 -14 -8 -14 3 0 -2 -8 -11 -18
-10 -10 -27 -31 -38 -46 -11 -16 -31 -42 -44 -57 -28 -36 -22 -63 11 -51 13 5
41 7 63 5 50 -4 50 -4 108 -1 27 2 51 0 53 -4 3 -4 15 -4 27 1 19 6 81 7 97 1
3 -1 10 -1 15 0 6 2 51 2 102 2 l92 -2 53 70 c28 39 56 70 60 70 5 0 6 5 3 10
-3 6 1 13 9 16 9 3 16 12 16 20 0 8 9 19 20 26 11 7 20 18 20 25 0 7 5 13 10
13 6 0 10 5 10 10 0 6 8 19 18 29 31 35 43 51 37 51 -3 0 3 8 13 18 30 32 60
69 79 99 9 15 23 32 30 36 7 4 13 13 13 18 0 6 13 24 30 42 16 18 30 35 30 39
0 4 6 13 13 20 6 7 25 31 42 53 16 22 33 45 37 50 5 6 26 33 48 62 l40 51
-310 0 c-246 1 -310 -2 -310 -12z"/>
<path d="M7792 10084 c-7 -8 -11 -15 -10 -16 1 -2 -10 -15 -24 -30 -14 -16
-38 -47 -54 -70 -16 -24 -34 -47 -40 -53 -6 -5 -37 -46 -70 -90 -32 -44 -67
-89 -77 -100 -10 -11 -25 -32 -33 -47 -8 -16 -19 -28 -24 -28 -6 0 -10 -7 -10
-15 0 -8 -9 -20 -20 -27 -11 -7 -20 -17 -20 -23 0 -5 -16 -27 -35 -49 -19 -21
-35 -41 -35 -45 0 -3 -11 -18 -24 -34 -13 -15 -34 -43 -47 -62 -13 -19 -27
-35 -31 -35 -5 0 -8 -5 -8 -10 0 -6 -11 -23 -25 -38 -33 -36 -32 -41 13 -41
20 0 44 -1 52 -1 8 0 37 1 63 2 27 2 51 0 53 -4 3 -4 15 -4 27 1 19 6 81 7 97
1 3 -1 10 -1 15 0 6 1 61 2 122 3 101 0 113 2 118 18 4 11 11 19 16 19 5 0 9
6 9 14 0 8 3 16 8 18 8 3 49 54 72 88 8 12 20 28 25 34 6 6 23 29 39 51 17 22
35 43 40 47 6 4 8 8 4 8 -4 0 3 11 15 24 26 28 35 39 67 86 13 19 30 39 37 43
7 5 11 12 8 18 -4 5 -1 9 4 9 6 0 22 17 35 38 13 20 33 48 45 62 12 13 31 39
42 57 11 18 24 33 29 33 5 0 11 8 14 18 3 9 16 28 28 42 27 30 68 87 68 94 0
3 -127 5 -283 4 -223 0 -285 -3 -295 -14z"/>
<path d="M8581 10062 c-17 -21 -31 -43 -31 -49 0 -7 -4 -13 -8 -13 -5 0 -46
-51 -92 -112 -47 -62 -87 -115 -90 -118 -3 -3 -22 -27 -41 -55 -18 -27 -39
-54 -45 -60 -6 -5 -39 -48 -74 -95 -98 -131 -124 -164 -135 -172 -5 -4 -6 -8
-2 -8 5 0 1 -7 -7 -16 -22 -21 -66 -80 -66 -86 0 -3 121 -6 269 -6 l270 0 23
31 c13 17 47 61 76 99 28 38 52 73 52 79 0 5 5 7 10 4 6 -3 10 -2 10 3 0 10
98 143 114 154 6 4 8 8 4 8 -5 0 0 8 10 18 31 34 52 62 52 71 0 5 7 11 15 15
8 3 15 11 15 17 0 6 11 22 25 35 14 13 25 26 25 29 0 3 43 62 95 130 52 69 95
127 95 129 0 3 -121 5 -269 4 l-270 0 -30 -36z"/>
<path d="M9358 10058 c-18 -22 -37 -48 -42 -57 -5 -9 -12 -18 -16 -21 -3 -3
-19 -23 -36 -45 -16 -22 -33 -45 -39 -51 -5 -6 -21 -27 -35 -47 -14 -20 -28
-37 -32 -37 -5 0 -8 -4 -8 -10 0 -9 -6 -17 -58 -78 -12 -15 -25 -35 -28 -44
-3 -10 -9 -18 -13 -18 -4 0 -23 -22 -42 -50 -19 -27 -37 -50 -41 -50 -5 0 -8
-6 -8 -14 0 -8 -4 -16 -8 -18 -5 -1 -27 -28 -49 -58 -22 -30 -50 -65 -61 -76
-12 -12 -18 -25 -15 -28 4 -3 0 -6 -7 -6 -7 0 -11 -3 -7 -6 3 -3 -5 -17 -19
-31 -13 -13 -24 -28 -24 -33 0 -4 115 -8 255 -8 l255 1 57 76 c31 42 60 78 65
79 4 2 6 8 2 13 -3 5 0 9 6 9 6 0 16 11 22 25 6 14 18 25 25 25 8 0 12 4 9 9
-3 5 5 20 19 35 13 14 22 26 19 26 -3 0 2 7 10 15 8 9 45 56 82 105 36 50 70
90 75 90 5 0 9 6 9 13 0 7 23 40 50 74 28 34 50 67 50 73 0 6 5 8 10 5 6 -3
10 1 10 9 0 9 5 16 10 16 6 0 10 7 10 15 0 8 4 15 8 15 4 0 19 18 32 40 14 22
28 40 33 40 4 0 7 4 7 9 0 6 -106 10 -254 10 l-254 0 -34 -41z"/>
<path d="M10187 10084 c-6 -9 -19 -23 -27 -33 -8 -9 -26 -33 -40 -54 -14 -20
-28 -37 -32 -37 -5 0 -8 -4 -8 -10 0 -5 -7 -18 -15 -27 -18 -21 -72 -90 -97
-124 -23 -32 -44 -60 -95 -124 -24 -30 -43 -56 -43 -59 0 -3 -8 -14 -17 -24
-33 -35 -53 -62 -53 -72 0 -6 -3 -10 -7 -10 -5 0 -19 -17 -33 -37 -14 -20 -30
-41 -35 -47 -6 -6 -22 -27 -35 -46 -13 -19 -27 -37 -30 -40 -3 -3 -16 -20 -29
-37 l-22 -33 46 3 c26 2 49 -1 51 -5 3 -4 15 -4 27 1 25 8 84 7 93 -2 3 -3 16
-2 28 2 24 8 83 7 92 -2 3 -3 16 -3 28 1 11 4 43 7 70 6 48 -1 76 12 76 35 0
6 4 11 8 11 4 0 50 57 102 128 52 70 97 129 100 132 3 3 19 23 36 45 16 22 34
45 39 51 6 7 19 24 30 40 17 24 89 119 112 149 5 6 35 46 68 90 75 100 77 103
93 120 6 7 8 16 4 19 -5 3 -113 5 -240 5 -195 0 -234 -3 -245 -15z"/>
<path d="M10950 10064 c-14 -19 -34 -45 -45 -58 -11 -13 -29 -36 -40 -51 -11
-16 -26 -34 -32 -41 -7 -7 -13 -17 -13 -22 0 -6 -7 -13 -16 -16 -9 -4 -14 -9
-11 -12 3 -3 -5 -16 -19 -29 -13 -12 -24 -26 -24 -30 0 -7 -31 -47 -75 -97 -8
-10 -15 -22 -15 -28 0 -5 -6 -13 -13 -17 -7 -4 -24 -24 -37 -43 -13 -19 -41
-56 -63 -82 -21 -27 -36 -48 -31 -48 4 0 -2 -8 -12 -17 -11 -10 -33 -36 -50
-58 -16 -22 -33 -45 -39 -51 -5 -6 -17 -22 -25 -34 -8 -12 -21 -29 -28 -36
-19 -20 -2 -24 76 -21 35 1 66 -1 68 -5 3 -4 15 -4 27 1 19 6 81 7 97 1 3 -1
10 -1 15 0 6 2 44 2 86 2 66 -1 77 2 90 20 8 11 26 35 42 52 15 17 27 34 27
38 0 4 11 19 25 33 14 14 22 25 18 25 -4 0 -1 6 7 13 9 7 31 35 50 62 19 28
45 60 57 71 12 12 19 25 16 28 -4 3 -1 6 5 6 7 0 12 6 12 14 0 8 4 16 9 18 5
2 32 35 62 73 29 39 56 72 61 73 4 2 8 8 8 13 0 10 44 69 82 113 10 11 30 38
45 60 15 23 32 46 38 51 5 6 18 22 28 37 l17 27 -228 0 -227 0 -25 -35z"/>
<path d="M11755 10062 c-17 -21 -46 -59 -65 -86 -19 -27 -45 -59 -57 -73 -13
-13 -23 -26 -23 -30 0 -3 -11 -19 -25 -37 -14 -17 -34 -41 -43 -54 -9 -12 -27
-35 -39 -50 -12 -15 -57 -74 -100 -132 -43 -58 -82 -110 -88 -117 -5 -6 -18
-22 -28 -35 -9 -13 -34 -45 -55 -73 -21 -27 -47 -63 -57 -79 l-19 -29 27 5
c15 3 30 2 32 -3 3 -4 18 -4 33 0 23 6 87 7 102 1 3 -1 10 -1 15 0 6 1 58 2
117 3 l107 0 28 41 c15 23 36 50 45 60 10 11 30 38 45 60 15 23 31 43 34 46 4
3 51 64 104 135 54 72 103 133 109 137 6 5 7 8 1 8 -5 0 -3 6 5 13 9 7 29 30
45 52 17 22 35 45 40 51 6 6 17 22 25 34 12 18 86 115 118 155 26 33 24 33
-191 33 l-213 0 -29 -36z"/>
<path d="M12541 10072 c-29 -39 -55 -72 -66 -85 -5 -7 -37 -48 -69 -92 -33
-44 -62 -82 -66 -85 -3 -3 -23 -30 -45 -60 -22 -30 -42 -57 -45 -60 -3 -3 -17
-21 -30 -40 -13 -19 -27 -37 -30 -40 -3 -3 -19 -23 -36 -45 -34 -47 -39 -53
-62 -82 -9 -11 -24 -31 -32 -43 -8 -12 -20 -28 -26 -34 -17 -18 -94 -125 -94
-130 0 -6 370 -6 393 0 9 3 17 10 17 15 0 5 8 18 18 28 22 25 32 38 62 81 13
19 30 39 37 43 7 4 13 13 13 19 0 6 11 21 26 34 14 13 23 24 20 24 -6 0 17 30
47 62 9 10 17 20 17 23 0 4 128 174 140 185 3 3 11 17 19 32 8 16 16 26 19 24
4 -5 40 41 96 124 13 19 33 45 45 57 12 12 21 27 21 33 0 5 4 10 9 10 5 0 11
6 14 14 5 11 -29 14 -194 14 l-199 1 -19 -27z"/>
<path d="M13314 10027 c-30 -40 -61 -80 -69 -89 -7 -9 -22 -29 -32 -44 -10
-16 -28 -40 -41 -53 -13 -14 -31 -38 -40 -53 -9 -16 -20 -28 -24 -28 -4 0 -8
-5 -8 -11 0 -6 -6 -16 -12 -23 -7 -7 -22 -25 -33 -41 -11 -15 -27 -35 -35 -44
-9 -9 -29 -35 -44 -58 -16 -24 -33 -43 -39 -43 -6 0 -8 -3 -4 -6 6 -6 -6 -24
-35 -52 -10 -9 -18 -22 -18 -29 0 -7 -4 -13 -9 -13 -5 0 -18 -15 -30 -32 -11
-18 -29 -43 -41 -55 -11 -13 -17 -23 -13 -23 4 0 -2 -7 -13 -15 -10 -8 -15
-15 -10 -15 6 0 1 -6 -9 -14 -17 -12 4 -14 168 -14 l187 0 27 35 c16 19 36 44
46 54 9 10 17 23 17 28 0 5 3 11 8 13 4 2 27 30 52 63 54 73 60 81 83 106 9
10 17 22 17 25 0 3 6 12 13 19 19 22 30 37 66 88 19 26 38 47 43 47 5 0 7 4 4
9 -4 5 -3 11 2 13 4 1 50 59 102 128 52 69 98 127 102 128 5 2 8 8 8 14 0 5 7
16 15 24 8 9 15 19 15 24 0 5 -80 9 -180 9 l-180 0 -56 -72z"/>
<path d="M14087 10022 c-30 -43 -65 -88 -76 -101 -12 -13 -21 -27 -21 -30 0
-3 -14 -20 -30 -38 -17 -18 -30 -35 -30 -39 0 -5 -26 -40 -63 -84 -6 -8 -51
-66 -99 -130 -100 -133 -118 -156 -136 -176 -7 -8 -10 -14 -6 -14 4 0 -5 -11
-20 -25 -14 -13 -25 -26 -24 -27 2 -2 -3 -10 -10 -18 -25 -30 -52 -63 -52 -65
0 -1 75 -2 167 -3 128 0 172 3 187 14 11 8 17 14 13 14 -5 0 -2 7 5 15 7 8 22
26 33 41 11 14 25 31 30 37 6 7 22 28 35 47 13 19 27 37 30 40 7 6 67 86 90
120 8 12 28 35 43 51 15 15 28 32 27 36 0 4 8 17 17 28 47 54 143 186 143 195
0 6 5 8 10 5 6 -3 10 -2 10 3 0 7 88 132 119 169 8 9 -32 11 -163 11 l-173 0
-56 -76z"/>
<path d="M3130 8960 c-22 -3 -35 -11 -36 -20 0 -13 -34 -129 -52 -180 -3 -8
-6 -18 -6 -22 -1 -3 -4 -9 -8 -13 -4 -4 -4 -13 -1 -21 3 -8 0 -14 -7 -14 -6 0
-8 -5 -5 -10 4 -6 2 -16 -3 -23 -6 -7 -11 -15 -11 -19 -1 -5 -1 -9 -2 -10 -3
-10 -10 -46 -11 -60 -1 -10 -6 -18 -11 -18 -5 0 -7 -7 -3 -15 3 -8 1 -15 -4
-15 -6 0 -10 -6 -10 -14 0 -15 -69 -246 -78 -261 -4 -5 -8 -19 -10 -30 -4 -24
-10 -48 -12 -55 -1 -3 -2 -8 -1 -12 0 -5 -4 -8 -10 -8 -6 0 -9 -6 -6 -14 3 -7
1 -18 -3 -22 -5 -5 -11 -18 -13 -29 -2 -11 -9 -33 -16 -50 -7 -16 -19 -57 -28
-90 -8 -33 -18 -64 -21 -70 -4 -5 -7 -16 -8 -23 -2 -8 -6 -21 -10 -30 -4 -9
-8 -20 -9 -24 -2 -5 -4 -10 -5 -13 -1 -3 -4 -9 -5 -15 -1 -5 -3 -11 -5 -12 -1
-3 -6 -21 -13 -50 -1 -7 -5 -17 -9 -23 -3 -5 -16 -44 -28 -85 -12 -41 -33
-111 -48 -155 -15 -44 -25 -83 -24 -87 1 -5 -3 -8 -9 -8 -5 0 -8 -4 -4 -9 3
-5 1 -12 -4 -16 -5 -3 -9 -13 -9 -23 0 -9 -20 -79 -46 -155 -25 -76 -46 -142
-46 -147 0 -5 -5 -21 -12 -37 -13 -32 -19 -52 -20 -70 -1 -7 -4 -13 -8 -13 -4
0 -7 -6 -8 -12 -1 -17 -7 -39 -16 -60 -4 -9 -9 -22 -10 -30 -2 -7 -5 -20 -9
-28 -13 -36 -20 -58 -32 -105 -8 -27 -19 -63 -26 -80 -7 -16 -14 -39 -16 -49
-2 -11 -8 -25 -13 -31 -5 -7 -7 -15 -3 -18 3 -4 1 -13 -5 -20 -7 -7 -13 -22
-15 -33 -2 -10 -7 -26 -10 -34 -3 -8 -22 -68 -42 -133 -20 -65 -41 -130 -47
-145 -6 -15 -10 -33 -9 -39 1 -7 -3 -13 -10 -13 -6 0 -9 -6 -6 -14 3 -8 3 -17
-1 -20 -3 -4 -7 -15 -9 -26 -5 -36 -8 -45 -15 -50 -4 -3 -9 -15 -11 -25 -2
-11 -9 -33 -16 -48 -6 -16 -9 -32 -6 -37 3 -5 2 -10 -3 -12 -7 -3 -57 -154
-67 -201 -2 -9 -7 -23 -12 -30 -4 -6 -8 -16 -10 -22 -6 -29 -15 -59 -46 -150
-19 -55 -40 -124 -47 -152 -8 -29 -18 -53 -23 -53 -5 0 -7 -6 -4 -14 3 -7 -1
-25 -8 -40 -8 -14 -12 -26 -10 -26 2 0 -4 -20 -15 -45 -11 -25 -19 -48 -19
-50 1 -6 -69 -232 -78 -255 -4 -8 -7 -18 -8 -22 -2 -5 -4 -10 -5 -13 -1 -3 -4
-9 -5 -15 -1 -5 -4 -12 -5 -15 -1 -3 -4 -9 -5 -15 -1 -5 -4 -12 -5 -15 -1 -3
-4 -9 -5 -15 -1 -5 -3 -11 -5 -12 -3 -5 -12 -43 -13 -60 -1 -10 -5 -18 -9 -18
-4 0 -7 -3 -6 -7 3 -10 -89 -292 -103 -316 -5 -10 -7 -22 -4 -27 4 -6 2 -10
-3 -10 -7 0 -21 -52 -23 -90 -1 -3 -4 -9 -9 -15 -7 -9 -55 -152 -70 -210 -2
-5 -14 -39 -28 -75 -14 -36 -24 -73 -24 -82 0 -10 -3 -18 -9 -18 -5 0 -9 -8
-9 -17 0 -15 -11 -54 -56 -193 -3 -8 -5 -17 -6 -20 0 -3 -4 -12 -9 -21 -4 -9
-10 -27 -13 -40 -3 -13 -8 -35 -11 -49 -11 -41 -11 -160 -1 -160 5 0 7 -3 4
-6 -3 -3 10 -21 29 -40 25 -25 44 -35 69 -36 19 -1 34 -4 34 -7 0 -4 156 -6
348 -5 191 1 347 3 347 4 0 2 146 4 325 6 179 2 332 5 340 7 15 4 25 7 85 30
48 18 122 99 154 169 16 35 41 104 56 153 15 50 32 96 37 103 6 6 8 12 5 12
-3 0 1 16 9 35 8 19 11 35 8 35 -4 0 -1 7 6 15 7 8 9 15 5 15 -4 0 -3 6 3 13
6 7 20 46 31 87 11 41 31 105 44 142 14 37 22 69 19 72 -3 3 0 6 6 6 6 0 9 7
6 15 -4 8 -1 15 6 15 7 0 10 7 7 15 -4 8 -2 17 4 21 6 3 8 12 5 19 -2 7 -1 16
3 21 5 5 30 81 57 169 26 88 52 161 56 163 4 2 4 10 1 18 -3 8 0 14 7 14 6 0
10 6 7 13 -2 6 2 29 9 50 7 20 10 37 6 37 -4 0 -1 4 6 9 7 4 14 19 16 32 2 13
15 61 29 107 15 46 27 90 27 98 0 7 5 14 12 14 6 0 9 3 5 6 -3 3 1 23 8 45 8
21 12 39 9 39 -2 0 3 14 11 30 9 17 13 35 10 40 -3 6 -2 10 3 10 5 0 9 6 9 13
0 12 58 206 88 297 8 25 17 54 19 65 2 11 9 32 14 46 6 15 8 30 5 33 -4 3 -1
6 6 6 7 0 10 4 7 8 -3 5 4 33 15 62 11 29 18 55 15 58 -3 2 -1 13 5 24 12 22
61 177 62 196 0 6 4 12 8 12 4 0 6 8 4 18 -1 9 2 23 8 30 5 6 6 12 2 12 -4 0
-2 7 5 15 6 8 9 19 5 25 -3 5 -1 10 5 10 7 0 10 6 7 14 -3 7 -2 17 2 22 5 5
21 52 36 104 15 52 30 104 35 115 4 11 7 22 7 25 1 3 8 22 16 43 9 20 13 37
10 37 -3 0 0 7 7 15 6 8 9 19 6 24 -4 5 -1 13 5 16 5 4 8 13 5 20 -3 8 0 15 5
17 6 2 12 16 12 31 1 15 6 27 11 27 4 0 6 6 3 14 -3 7 -2 17 3 22 4 5 20 47
35 94 14 47 29 92 32 100 4 8 5 19 4 24 -1 4 4 14 10 22 6 8 8 14 4 14 -4 0
-2 7 5 15 7 8 9 15 5 15 -4 0 -2 7 5 15 7 8 9 15 5 15 -4 0 -2 7 5 15 7 8 9
15 5 15 -4 0 -2 7 5 15 6 8 9 19 5 25 -3 5 -1 10 4 10 6 0 10 3 9 8 -1 4 13
51 30 105 18 53 32 104 32 112 0 8 5 15 11 15 6 0 9 6 6 13 -2 6 4 32 15 55
10 24 16 48 12 53 -3 5 0 9 5 9 6 0 10 3 9 8 -3 11 76 247 84 250 4 2 4 10 1
18 -3 8 0 14 7 14 6 0 8 5 5 10 -4 6 -1 17 5 25 7 8 9 15 5 15 -4 0 -2 7 5 15
7 8 9 15 5 15 -4 0 -2 7 5 15 6 8 9 19 5 25 -3 5 -1 10 5 10 6 0 9 4 5 9 -3 5
0 13 6 16 5 4 8 13 5 20 -3 8 -2 15 2 17 4 2 23 53 42 113 19 61 39 113 45
117 5 4 7 10 3 13 -3 4 0 21 7 40 8 18 11 35 8 39 -4 3 -1 6 6 6 7 0 10 4 6 9
-3 5 -1 12 5 16 6 4 7 11 4 17 -4 6 -3 13 2 17 5 3 29 69 54 146 25 77 48 141
52 143 4 2 4 10 1 18 -3 8 0 14 7 14 7 0 10 6 7 14 -3 7 1 25 8 40 8 14 11 26
8 26 -3 0 0 7 7 15 7 8 9 15 5 15 -4 0 -2 6 4 13 6 8 8 17 4 21 -4 4 -3 10 3
14 5 4 17 34 26 67 10 34 22 74 29 90 6 17 13 41 15 54 2 13 9 28 16 32 7 5
10 9 6 9 -4 0 -3 12 3 28 16 40 19 63 8 57 -5 -4 -9 -2 -9 3 0 10 -30 9 -48
-2 -6 -4 -12 -4 -12 1 0 9 -1581 11 -1640 3z"/>
<path d="M5456 8885 c-12 -6 -21 -17 -22 -25 -1 -8 -2 -18 -4 -22 -1 -5 -4
-12 -5 -18 -1 -5 -4 -11 -5 -12 -2 -3 -8 -36 -12 -65 -1 -7 -5 -13 -9 -13 -4
0 -6 -9 -4 -20 2 -11 -1 -20 -7 -20 -6 0 -8 -9 -5 -20 3 -11 2 -20 -2 -20 -4
0 -18 -55 -30 -122 -13 -68 -25 -130 -28 -138 -3 -8 -6 -35 -8 -60 -1 -25 -6
-70 -10 -100 -10 -72 -12 -380 -2 -380 4 0 7 -16 7 -35 0 -51 48 -269 60 -273
6 -2 8 -8 5 -13 -4 -5 3 -29 14 -54 11 -25 17 -45 13 -45 -4 0 -2 -4 3 -8 6
-4 32 -53 60 -109 27 -57 53 -103 58 -103 4 0 5 -4 2 -10 -3 -5 -1 -10 4 -10
6 0 11 -5 11 -10 0 -6 10 -22 23 -35 33 -36 47 -54 47 -60 0 -7 224 -229 277
-276 16 -14 37 -28 46 -32 10 -3 17 -11 17 -17 0 -5 5 -10 10 -10 6 0 33 -16
60 -35 27 -19 53 -35 56 -35 3 0 17 -9 31 -20 14 -11 29 -17 34 -14 5 3 9 1 9
-3 0 -12 56 -44 64 -36 3 3 6 1 6 -5 0 -6 22 -18 50 -27 27 -9 52 -21 55 -26
4 -5 15 -9 26 -9 10 0 19 -5 19 -12 0 -6 3 -8 7 -5 3 4 12 2 20 -4 7 -6 13 -8
13 -4 0 4 7 2 15 -5 8 -7 15 -9 15 -5 0 4 7 2 15 -5 8 -6 19 -9 25 -5 5 3 10
2 10 -3 0 -5 10 -12 23 -15 12 -3 85 -22 162 -42 77 -20 154 -38 170 -40 51
-6 90 -13 90 -15 0 -1 18 -4 40 -6 22 -3 58 -7 80 -9 183 -22 409 -27 1528
-30 560 -1 1021 -5 1024 -9 3 -3 45 -6 92 -6 128 -1 351 -46 351 -72 0 -5 4
-7 9 -3 5 3 12 1 16 -5 4 -6 11 -8 16 -5 5 4 9 2 9 -4 0 -5 10 -13 22 -17 12
-3 27 -12 35 -18 29 -24 113 -107 113 -111 0 -3 15 -28 33 -57 33 -54 36 -61
44 -113 3 -16 8 -37 12 -45 8 -16 6 -201 -2 -237 -3 -12 -11 -31 -17 -43 -6
-11 -8 -25 -5 -30 3 -6 1 -10 -4 -10 -6 0 -11 -8 -11 -17 0 -18 -78 -156 -92
-161 -4 -2 -8 -8 -8 -14 0 -6 -12 -19 -26 -31 -14 -11 -39 -38 -55 -60 -16
-22 -29 -36 -29 -32 0 4 -19 -10 -41 -31 -23 -22 -50 -47 -60 -56 -11 -10 -22
-18 -25 -18 -3 0 -22 -13 -42 -29 -20 -15 -66 -44 -102 -62 -36 -19 -67 -37
-68 -42 -2 -4 -8 -5 -13 -1 -5 3 -9 0 -9 -7 0 -7 -3 -9 -6 -6 -4 3 -16 1 -28
-5 -11 -7 -30 -13 -40 -15 -11 -2 -25 -8 -33 -14 -7 -6 -13 -8 -13 -4 0 4 -6
3 -13 -3 -7 -6 -24 -13 -37 -16 -14 -2 -56 -11 -95 -20 -146 -33 -276 -36
-1970 -34 -1770 2 -2711 2 -2758 0 -32 -2 -93 -32 -125 -62 -18 -17 -48 -71
-57 -102 -2 -5 -3 -9 -5 -10 -2 -3 -5 -19 -13 -60 -3 -15 -8 -31 -11 -36 -5
-8 -16 -52 -20 -82 -1 -9 -5 -20 -8 -25 -3 -6 -18 -50 -33 -98 -15 -49 -33
-101 -41 -116 -7 -15 -16 -38 -18 -52 -2 -13 -5 -26 -6 -29 -2 -3 -2 -8 -1
-12 0 -5 -4 -8 -9 -8 -5 0 -9 -3 -8 -7 2 -7 -55 -198 -69 -233 -4 -8 -7 -18
-8 -22 -2 -5 -3 -9 -5 -10 -1 -2 -4 -16 -6 -33 -3 -16 -10 -35 -16 -42 -6 -7
-8 -13 -4 -13 5 0 -3 -26 -30 -95 -8 -21 -14 -48 -17 -77 -1 -10 -4 -18 -7
-18 -4 0 -19 -45 -35 -100 -15 -55 -31 -100 -36 -100 -5 0 -6 -7 -3 -15 3 -8
2 -20 -2 -27 -5 -7 -10 -19 -11 -25 -7 -30 -12 -48 -13 -50 -2 -2 -3 -6 -4
-10 -1 -5 -5 -14 -9 -20 -5 -7 -6 -17 -2 -22 3 -5 0 -13 -6 -16 -5 -4 -8 -13
-5 -20 3 -8 1 -15 -4 -17 -5 -2 -11 -12 -13 -23 -2 -11 -7 -27 -10 -35 -4 -8
-8 -28 -9 -45 l-3 -30 2245 1 c2251 0 2387 1 2405 12 5 3 34 7 65 8 30 2 80 6
110 9 30 3 75 7 100 9 25 2 45 5 45 6 0 1 18 4 40 6 22 2 51 6 65 8 67 13 108
19 135 20 17 1 32 3 35 6 3 3 66 18 140 33 74 15 143 30 153 32 28 8 60 16 86
21 14 3 29 8 35 12 6 4 18 7 26 8 8 0 22 3 30 7 28 11 105 31 118 30 6 0 12 2
12 6 0 4 23 13 50 20 28 7 50 16 50 19 0 4 14 8 31 9 18 1 41 10 51 20 11 10
22 17 24 16 2 -2 5 -3 7 -2 1 0 13 3 27 5 13 2 27 9 31 16 4 6 11 8 17 4 6 -3
14 -1 17 5 4 5 13 8 21 5 8 -3 14 -1 14 4 0 5 10 12 23 16 53 16 205 89 302
145 39 22 82 45 98 52 15 6 27 15 27 19 0 4 4 8 10 8 17 0 192 112 197 127 3
7 9 11 13 8 5 -3 15 1 23 9 8 8 17 13 20 10 3 -3 10 4 17 15 6 12 17 21 24 21
8 0 16 7 20 15 3 8 11 15 18 15 7 0 22 11 32 25 10 13 22 23 26 20 4 -3 16 7
26 20 10 14 23 25 27 25 5 0 24 16 43 35 18 19 37 35 41 35 8 0 211 208 263
270 19 23 44 51 55 63 12 12 24 30 28 40 3 9 11 17 17 17 5 0 10 5 10 11 0 7
11 22 25 35 14 13 25 25 25 28 0 9 74 111 82 114 5 2 8 13 8 23 0 11 4 18 9
15 4 -3 17 12 27 34 10 22 22 40 25 40 4 0 12 15 20 33 7 17 15 34 18 37 11
10 52 86 114 210 34 69 66 128 70 131 5 3 8 9 8 13 -1 3 0 8 0 11 1 3 2 8 3
13 1 4 10 22 19 40 10 17 15 32 12 32 -3 0 1 10 9 23 7 12 26 58 42 102 15 44
32 83 38 87 6 4 8 8 3 8 -4 0 0 17 9 38 9 20 17 42 18 49 1 7 5 15 8 19 4 3 4
12 1 20 -3 8 0 14 7 14 7 0 10 6 7 14 -3 7 -1 18 3 22 5 5 11 21 14 34 2 14 6
27 7 30 1 3 3 10 4 15 1 6 4 17 8 25 20 55 59 221 59 253 -1 9 2 17 6 17 4 0
8 15 9 33 3 46 11 112 13 112 9 0 20 375 11 390 -3 5 -6 32 -8 60 -3 53 -9
100 -12 100 -1 0 -4 11 -6 25 -3 23 -11 51 -48 185 -20 72 -76 202 -93 215 -7
7 -11 16 -8 21 3 5 0 9 -5 9 -6 0 -11 6 -11 14 0 8 -16 37 -35 66 -19 29 -35
56 -35 61 0 4 -6 12 -12 16 -7 4 -19 19 -27 33 -51 91 -296 321 -410 386 -19
10 -43 27 -53 37 -10 10 -23 15 -28 12 -6 -4 -10 -1 -10 4 0 6 -3 10 -7 9 -13
-3 -63 24 -63 34 0 4 -8 8 -18 8 -10 0 -22 4 -27 9 -9 7 -99 44 -117 47 -5 1
-10 3 -13 4 -3 1 -8 3 -12 4 -5 1 -25 10 -47 19 -21 9 -42 15 -46 12 -5 -3
-11 -1 -14 4 -3 4 -20 12 -38 16 -18 4 -37 9 -43 11 -18 7 -199 44 -240 50
-22 3 -53 7 -70 10 -16 2 -49 5 -72 6 -24 1 -43 4 -43 7 0 3 -28 6 -63 5 -34
0 -66 2 -72 5 -11 6 -102 11 -262 13 -57 1 -103 5 -103 9 0 3 -69 6 -152 7
-84 0 -155 1 -158 3 -10 4 -551 11 -1120 14 -609 3 -797 8 -923 24 -87 12
-196 38 -213 52 -6 5 -14 6 -17 2 -4 -3 -7 -1 -7 6 0 7 -4 10 -9 7 -9 -6 -86
30 -107 49 -6 6 -31 28 -55 51 -62 57 -130 171 -134 226 0 3 -3 9 -7 13 -4 4
-4 13 -1 21 3 8 1 20 -4 27 -5 6 -8 76 -8 155 1 94 -2 142 -9 143 -6 0 -411 1
-900 2 -593 1 -897 -1 -910 -8z"/>
</g>
</svg>
